<svg version="1" xmlns="http://www.w3.org/2000/svg" width="933.333" height="933.333" viewBox="0 0 700.000000 700.000000"><path d="M141 1.5C82.7 9.5 33.7 51.6 17.5 107.7c-6.4 22-6 6.8-6 224.8 0 185.6.1 198.6 1.8 207.2 6.5 33.7 20.5 60.2 43.9 82.9 20.9 20.4 44.2 32.7 74.3 39.5 10 2.3 10.3 2.3 112.5 2.7 93 .3 102.8.2 105.6-1.3 8.1-4.3 8.5-15.8.7-21.1-2.7-1.8-6.8-1.9-105.3-2.5-111.3-.6-106.4-.3-123.5-6.1-30.1-10.2-56.4-32.7-70.7-60.4-7.9-15.2-11.6-27-13.8-43.7-1.4-11.2-1.4-383.5.1-394.8C44.3 79.4 86.5 35.4 141 26.5c8.3-1.3 33.7-1.5 203-1.5 124.5 0 195.8.4 200 1 31.7 4.9 60.1 21.1 79.5 45.3 16.3 20.3 25.2 42.6 27.5 68.7.6 7 1 69 1 160.2v148.7l3.3 3.5c5.6 5.9 11.5 6 17.4.1l3.3-3.3V292.3c0-165.2 0-162.9-4.4-180.1C656.5 54 605.9 9.3 546.3 1.5 536.5.2 507.9 0 342.7.1 190.6.2 148.5.5 141 1.5z"/><path d="M253.5 86.7c-1.2.2-3.2 1.4-4.7 2.6-1.4 1.2-18.9 21.3-38.8 44.7-20 23.4-37 43.3-37.9 44.3-1.6 1.6-3 .7-26.4-16.8-24.5-18.3-24.8-18.5-29.8-18.5-4.5 0-5.5.4-8.5 3.4-2.7 2.7-3.4 4.2-3.4 7.5 0 2.2.5 5.1 1.2 6.5 1 2.3 55.4 44.2 61.5 47.5 3.1 1.6 9.5 1.4 12.2-.5 3.4-2.4 88.1-101.5 89.3-104.4 1.3-3.4.4-9.7-1.9-12.2-1.9-2.2-7.4-4.9-9.5-4.7-.7.1-2.2.4-3.3.6zM337.9 149.5c-8.1 4.4-8.2 16-.2 21.2 2.5 1.7 9.7 1.8 114.6 2.1 74 .2 113.1-.1 115.6-.8 10.6-2.8 13.2-14.5 4.9-21.5l-3-2.5H455.2c-97 .1-115.1.3-117.3 1.5zM251.3 260c-1.2.5-19.8 21.4-41.3 46.4-21.4 25.1-39.3 45.6-39.7 45.6-.3 0-11-7.8-23.8-17.4-12.7-9.5-24.1-17.8-25.2-18.5-5.1-2.7-13.2-.1-15.8 5-2 3.7-1.6 10.9.6 13.6 3.1 3.7 60.9 46.1 63.8 46.8 7.1 1.5 7.2 1.4 53.2-52.2 23.8-27.8 43.9-51.6 44.6-52.7 2.8-4.9.4-13.5-4.6-16-3.3-1.7-8.3-2-11.8-.6zM339.4 321c-2.9 1.1-7.4 6.7-7.5 9.3-.2 3.9.3 6.1 1.9 8.9 3.6 6.1-2.7 5.8 121.2 5.8 124.9 0 116.9.4 121-6.3 2.5-4.1 2.5-8.1 0-12.2-4.3-6.9 3.4-6.5-121.7-6.4-62 0-113.7.4-114.9.9zM523.5 406.4c-1.7.7-3.5 1.9-4.1 2.7-.7.8-10.7 20.1-22.4 42.9-11.7 22.8-21.6 41.8-21.9 42.2-.3.4-22.2 3.7-48.6 7.4-26.4 3.6-49.4 7.3-51 8-5.4 2.5-7.9 9.5-5.6 15.6.5 1.3 16.8 17.3 36.3 35.5l35.4 33.3-8.3 46.7c-7.1 40-8.2 47.3-7.3 50.5 1.2 4.4 4.9 7.5 9.7 8.4 3 .6 8.1-1.7 48.2-21.9l44.7-22.6 45.1 22.7 45.2 22.7 4.2-1.5c4.7-1.6 8.9-6.6 8.9-10.6 0-1.2-3.6-22.4-8-47.1-4.4-24.6-8-45.5-8-46.3 0-.8 15.5-16 34.4-33.7l34.3-32.2 1.6-6.3c1.9-7.4.8-10.6-4.5-13.1-1.9-.8-24.4-4.4-51.3-8.2-39.2-5.4-48.2-6.9-49-8.3-.5-.9-10.4-20.1-22-42.7-17.7-34.5-21.5-41.3-24.4-43.2-3.8-2.6-7.2-2.8-11.6-.9zM252.5 444.5c-4 1.7-6.1 4-44.5 49-18.3 21.4-34.3 40.1-35.5 41.3l-2.2 2.4-24.2-18.1c-13.3-9.9-25.3-18.4-26.7-18.7-10.3-2.6-18.3 6.8-14.4 17 1.2 3.3 60.8 48.1 65 49 3.3.6 7.5-.7 10.4-3.2 2.3-2.1 84.5-97.7 86.9-101.2 3.3-4.7 1-14.2-4-16.8-3.4-1.7-7.8-2-10.8-.7z"/></svg>